#!OML:ASF \\Waltz\H\Terrain\Patient Classification 1\Animal1\Tuesday\Animal1.ASF
:FULLY-SPECIFIED
:DEGREES
1898
root 18.84 17.2052 2.19694 -356.293 -14.9416 -1.83741
lowerback 3.10285 -2.9459 -3.11056
upperback -5.40805 -4.00169 2.9163
thorax -6.97616 -1.72832 5.16203
lowerneck -5.93551 -5.09996 -8.6074
upperneck 11.3284 -7.73037 13.301
head 5.21865 -3.43294 5.07067
rclavicle -6.7885e-014 3.57812e-015
rhumerus -38.1551 5.05289 -80.9847
rradius 37.0251
rwrist -13.2901
rhand -21.6584 26.3765
rfingers 7.12502
rthumb 4.73858 -3.55055
lclavicle -6.7885e-014 3.57812e-015
lhumerus -45.3745 2.65408 79.7237
lradius 29.2246
lwrist -34.8438
lhand 5.035 46.2514
lfingers 7.12502
lthumb 30.4034 73.7649
rfemur -28.9436 15.8984 2.98305
rtibia 41.2387
rfoot 31.3357 9.29549
rtoes 11.6018
lfemur -0.261218 -32.7494 -23.0141
ltibia 1.78161e-014
lfoot -30.6666 43.342
ltoes 50.4627
1899
root 18.854 17.209 2.1688 -355.999 -15.8632 -2.17222
lowerback 3.13579 -2.87306 -2.81352
upperback -5.51522 -3.87822 3.0469
thorax -7.13319 -1.6736 5.13217
lowerneck -5.92332 -4.98715 -8.65043
upperneck 11.398 -7.59667 13.4174
head 5.22802 -3.363 5.12739
rclavicle 2.8128e-014 2.42517e-014
rhumerus -38.4936 4.53886 -80.9629
rradius 36.1986
rwrist -13.2779
rhand -21.3825 26.6203
rfingers 7.12502
rthumb 5.00499 -3.30056
lclavicle 2.8128e-014 2.42517e-014
lhumerus -44.8883 1.20035 80.6871
lradius 30.0053
lwrist -33.2246
lhand 4.49457 46.8318
lfingers 7.12502
lthumb 29.8878 74.4393
rfemur -29.2612 16.4254 3.13547
rtibia 40.8313
rfoot 30.9009 6.89392
rtoes 16.1256
lfemur -0.553729 -32.7704 -22.5052
ltibia 1.41386e-014
lfoot -32.5992 43.3787
ltoes 51.3693
1900
root 18.8642 17.2024 2.14326 -355.94 -16.7748 -2.1062
lowerback 3.14423 -2.81463 -2.88349
upperback -5.50185 -3.80647 3.02929
thorax -7.12845 -1.63539 5.14718
lowerneck -6.07816 -4.89779 -8.58595
upperneck 11.5674 -7.48539 13.377
head 5.28955 -3.29953 5.11055
rclavicle -4.85035e-014 -4.37326e-015
rhumerus -38.5392 3.53419 -80.7457
rradius 35.0655
rwrist -12.6279
rhand -20.9195 26.6573
rfingers 7.12502
rthumb 5.45211 -3.25256
lclavicle -4.85035e-014 -4.37326e-015
lhumerus -44.4211 0.2965 81.1566
lradius 30.9789
lwrist -32.4098
lhand 4.0424 47.0504
lfingers 7.12502
lthumb 29.4562 74.7347
rfemur -29.3431 16.576 3.0701
rtibia 40.41
rfoot 29.375 6.62989
rtoes 14.8357
lfemur -0.626927 -32.8219 -22.5382
ltibia -5.09386e-015
lfoot -34.7142 43.2323
ltoes 52.5948
1901
root 18.8717 17.1856 2.12538 -356.038 -17.5338 -1.70218
lowerback 3.05692 -2.81296 -3.29347
upperback -5.41136 -3.83476 2.95277
thorax -6.95861 -1.63632 5.28813
lowerneck -6.2596 -4.83954 -8.44585
upperneck 11.6074 -7.38379 13.1617
head 5.30839 -3.24854 5.02212
rclavicle 5.14852e-014 1.82882e-014
rhumerus -38.4773 2.44941 -80.4993
rradius 33.7993
rwrist -11.9505
rhand -20.9544 26.217
rfingers 7.12502
rthumb 5.41841 -3.69373
lclavicle 5.14852e-014 1.82882e-014
lhumerus -43.928 0.0846131 81.2283
lradius 31.9878
lwrist -32.5516
lhand 3.71273 46.9609
lfingers 7.12502
lthumb 29.1414 74.7003
rfemur -29.2215 16.4035 2.79121
rtibia 40.0784
rfoot 27.2145 8.18907
rtoes 8.04584
lfemur -0.57869 -33.0474 -22.984
ltibia -2.47984e-014
lfoot -36.5044 43.1284
ltoes 53.3293
1902
root 18.8799 17.1789 2.10324 -355.917 -18.3851 -1.62988
lowerback 2.92361 -2.77441 -3.41817
upperback -5.38105 -3.78752 2.972
thorax -6.84592 -1.61049 5.36456
lowerneck -6.40858 -4.77268 -8.35915
upperneck 11.7421 -7.29383 13.0607
head 5.35828 -3.19887 4.98027
rclavicle -1.10127e-013 -1.11319e-014
rhumerus -38.503 1.63804 -80.3867
rradius 32.5242
rwrist -11.4637
rhand -21.8288 25.6691
rfingers 7.12502
rthumb 4.57413 -4.26147
lclavicle -1.10127e-013 -1.11319e-014
lhumerus -43.2918 -0.345831 81.4003
lradius 32.7011
lwrist -32.2925
lhand 3.67324 47.0874
lfingers 7.12502
lthumb 29.1037 74.8333
rfemur -29.3429 16.6513 2.65968
rtibia 39.8089
rfoot 25.8881 7.30975
rtoes 8.51677
lfemur -0.70689 -33.1603 -22.9706
ltibia -8.4732e-015
lfoot -38.0969 43.0543
ltoes 53.9695
1903
root 18.8985 17.1761 2.08061 -355.978 -18.987 -0.889403
lowerback 2.86541 -2.81273 -3.93721
upperback -5.40515 -3.88625 2.71722
thorax -6.81315 -1.63972 5.3913
lowerneck -6.44626 -4.70525 -8.29074
upperneck 11.7883 -7.2264 13.1513
head 5.37212 -3.15634 5.00329
rclavicle -9.487e-014 5.96354e-015
rhumerus -38.7356 0.911301 -80.3316
rradius 31.6149
rwrist -11.3666
rhand -22.591 25.5177
rfingers 7.12502
rthumb 3.83811 -4.42751
lclavicle -9.487e-014 5.96354e-015
lhumerus -42.5766 -1.26133 81.649
lradius 33.2437
lwrist -31.5049
lhand 3.9201 47.2647
lfingers 7.12502
lthumb 29.3394 74.9696
rfemur -29.3298 16.4003 1.82397
rtibia 39.4584
rfoot 24.8096 5.233
rtoes 13.2193
lfemur -0.911129 -33.5864 -23.6538
ltibia -1.88845e-015
lfoot -39.5391 43.2033
ltoes 54.5333
1904
root 18.9175 17.1675 2.06419 -356.307 -19.3985 0.0464397
lowerback 3.02347 -2.90465 -4.60099
upperback -5.43629 -4.07726 2.41654
thorax -6.89639 -1.70314 5.47248
lowerneck -6.24321 -4.68857 -8.27081
upperneck 11.5698 -7.19692 13.164
head 5.2663 -3.15306 5.00872
rclavicle 5.47652e-014 -4.77083e-015
rhumerus -39.0643 0.0797025 -80.0298
rradius 30.701
rwrist -11.3877
rhand -22.1136 25.7611
rfingers 7.12502
rthumb 4.29911 -4.17528
lclavicle 5.47652e-014 -4.77083e-015
lhumerus -42.0003 -1.91654 81.7791
lradius 33.7868
lwrist -30.9834
lhand 3.54743 47.3827
lfingers 7.12502
lthumb 28.9835 75.1493
rfemur -28.8845 15.7992 0.991649
rtibia 38.92
rfoot 23.2512 4.80099
rtoes 12.423
lfemur -0.886171 -34.2063 -24.6739
ltibia -1.31695e-014
lfoot -40.6962 43.5639
ltoes 54.6884
1905
root 18.9169 17.1648 2.04638 -355.927 -20.2923 -0.858376
lowerback 3.02831 -2.83361 -3.88302
upperback -5.49071 -3.91945 2.70077
thorax -6.99984 -1.65175 5.36159
lowerneck -6.1361 -4.67273 -8.30965
upperneck 11.6135 -7.17062 13.073
head 5.25588 -3.1508 4.99034
rclavicle 1.13655e-013 -1.63003e-014
rhumerus -39.4227 -0.64475 -79.6368
rradius 29.5369
rwrist -11.4051
rhand -21.4308 26.094
rfingers 7.12502
rthumb 4.95839 -3.82796
lclavicle 1.13655e-013 -1.63003e-014
lhumerus -41.5435 -2.18457 81.773
lradius 34.3693
lwrist -30.6444
lhand 2.76499 47.6337
lfingers 7.12502
lthumb 28.236 75.5263
rfemur -28.6789 16.1423 2.10778
rtibia 38.1738
rfoot 21.7586 5.06184
rtoes 8.16494
lfemur -0.985513 -34.1994 -23.6267
ltibia -2.83268e-015
lfoot -42.5872 43.2397
ltoes 55.2692
1906
root 18.9136 17.1585 2.02419 -355.327 -21.2647 -1.86969
lowerback 2.83989 -2.75069 -3.11311
upperback -5.54311 -3.73393 3.05183
thorax -6.98973 -1.59274 5.27646
lowerneck -6.14962 -4.5613 -8.37183
upperneck 11.8213 -7.03053 13.0521
head 5.30679 -3.08255 5.00684
rclavicle 1.2275e-014 -2.90226e-014
rhumerus -39.8498 -1.09802 -79.3572
rradius 28.6251
rwrist -11.6104
rhand -21.5744 26.0526
rfingers 7.12502
rthumb 4.81976 -3.87254
lclavicle 1.2275e-014 -2.90226e-014
lhumerus -41.0901 -2.30371 81.7019
lradius 35.0501
lwrist -30.4496
lhand 2.68683 47.3974
lfingers 7.12502
lthumb 28.1613 75.3023
rfemur -28.6616 16.5297 3.29893
rtibia 37.2877
rfoot 20.4754 5.57071
rtoes 2.96242
lfemur -1.29115 -34.1047 -22.3616
ltibia 8.05078e-015
lfoot -44.5989 42.878
ltoes 55.9348
